# xmcd CD database file
#
# Track frame offsets:
#	150
#	9868
#	24107
#	37472
#	51822
#	65818
#	79788
#	92598
#	107562
#	118922
#	131866
#	144838
#	156277
#	168538
#	180095
#	192622
#	206249
#	217558
#
# Disc length: 3071 seconds
#
# Revision: 0
# Processed by: cddbd v1.5.2PL0 Copyright (c) Steve Scherf et al.
# Submitted via: CDex 1.51
#
DISCID=f70bfd12
DTITLE=Various Artist - Blues Spirit 02
DYEAR=1900
DGENRE=Blues
TTITLE0=Lightnin' Hopkins - Feel so bad
TTITLE1=John Lee Hooker - Henry's Swing Club
TTITLE2=Bessie Smith - Dying Gambler's Blues
TTITLE3=Muddy Waters - Blue Clover Blues
TTITLE4=Sonny Terry - All alone Blues
TTITLE5=Blind Boy Fuller - I'm a rattlesnakin' daddy
TTITLE6=Big Bill Broonzy - It's your time now
TTITLE7=Jelly Roll Morton - Funny Mabel
TTITLE8=Champion Jack Dupree - Chain Gang Blues
TTITLE9=Big Joe Turner - Howlin' winds
TTITLE10=Huddie 'Leadbelly' Ledbetter - Good Morning Blues
TTITLE11=John Lee Williamson - Black Panther Blues
TTITLE12=Roosevelt Sykes - 15c a day
TTITLE13=Muddy Waters - Gypsy woman
TTITLE14=John Lee Williamson - I have got to go
TTITLE15=Big Joe Turner - Johnson and Turner Blues
TTITLE16=Robert Johnson - Cross Road Blues
TTITLE17=BrownieMcGhee - Born for bad luck
EXTD=
EXTT0=
EXTT1=
EXTT2=
EXTT3=
EXTT4=
EXTT5=
EXTT6=
EXTT7=
EXTT8=
EXTT9=
EXTT10=
EXTT11=
EXTT12=
EXTT13=
EXTT14=
EXTT15=
EXTT16=
EXTT17=
PLAYORDER=
